<?xml version="1.0" encoding="iso-8859-1"?>
<!-- Uploaded to: SVG Repo, www.svgrepo.com, Generator: SVG Repo Mixer Tools -->
<svg fill="#000000" version="1.1" id="Layer_1" xmlns="http://www.w3.org/2000/svg" xmlns:xlink="http://www.w3.org/1999/xlink" 
	 viewBox="0 0 512 512" xml:space="preserve">
<g>
	<g>
		<path d="M0,154.024v144.368h143.36V154.024H0z M127.36,282.392H16V170.024h111.36V282.392z"/>
	</g>
</g>
<g>
	<g>
		<ellipse cx="71.68" cy="112.792" rx="20.48" ry="20.624"/>
	</g>
</g>
<g>
	<g>
		<path d="M184.32,154.024v144.368h143.36V154.024H184.32z M311.68,282.392H200.32V170.024h111.36V282.392z"/>
	</g>
</g>
<g>
	<g>
		<ellipse cx="256" cy="112.792" rx="20.48" ry="20.624"/>
	</g>
</g>
<g>
	<g>
		<path d="M368.64,154.024v144.368H512V154.024H368.64z M496,282.392H384.64V170.024H496V282.392z"/>
	</g>
</g>
<g>
	<g>
		<ellipse cx="440.32" cy="112.792" rx="20.48" ry="20.624"/>
	</g>
</g>
<g>
	<g>
		<rect y="362.584" width="143.36" height="16"/>
	</g>
</g>
<g>
	<g>
		<rect x="20.48" y="403.832" width="102.4" height="16"/>
	</g>
</g>
<g>
	<g>
		<rect x="184.32" y="362.584" width="143.36" height="16"/>
	</g>
</g>
<g>
	<g>
		<rect x="204.784" y="403.832" width="102.4" height="16"/>
	</g>
</g>
<g>
	<g>
		<rect x="368.64" y="362.584" width="143.36" height="16"/>
	</g>
</g>
<g>
	<g>
		<rect x="389.12" y="403.832" width="102.384" height="16"/>
	</g>
</g>
</svg>